# xmcd CD database file
#
# Track frame offsets:
#	150
#	26442
#	45215
#	71807
#
# Disc length: 1305 seconds
#
# Revision: 0
# Processed by: cddbd v1.5.1PL0 Copyright (c) Steve Scherf et al.
# Submitted via: CDex 1.51
#
DISCID=29051704
DTITLE=SNAKE HIP SHAKES - Rain
DYEAR=2001
DGENRE=Hard Rock
TTITLE0=Rain
TTITLE1=So Long!
TTITLE2=Slide
TTITLE3=Rain (Instrumental)
EXTD=YEAR: 2001
EXTT0=
EXTT1=
EXTT2=
EXTT3=
PLAYORDER=
